<svg xmlns="http://www.w3.org/2000/svg" aria-hidden="true" style="position:absolute;width:0;height:0;overflow:hidden">
  <defs>
    <symbol id="icon-burger" viewBox="0 0 32 32">
      <path stroke="#242424" stroke-width="2" stroke-linecap="round" stroke-linejoin="round"
        d="M28 13.333H4M28 8H4M28 18.667H4M28 24H4" />
    </symbol>
    <symbol id="icon-close" viewBox="0 0 32 32">
      <path stroke-linecap="round" stroke-linejoin="round" stroke="#F4F4F4" stroke-width="3" d="M24 8 8 24M8 8l16 16" />
    </symbol>
    <symbol id="icon-burger" viewBox="0 0 46 32">
      <path stroke-linecap="round" stroke-width="3.429" d="M8.671 5.074H44M8.671 24.468H44M19.602 14.771H44" />
    </symbol>
    <symbol id="icon-close" viewBox="0 0 32 32">
      <path stroke-linecap="round" stroke-linejoin="round" stroke-width="3" d="M24 8 8 24M8 8l16 16" />
    </symbol>
    <symbol id="icon-facebook" viewBox="0 0 32 32">
      <path
        d="M19.52 4.64h.96v3.6h-1.2c-.48 0-.96 0-1.2.24s-.24.48-.24 1.04v1.28h2.64v3.04h-2.64v13.2h-4.08V13.76H11.6v-3.04h2.16V9.68c0-1.76.24-3.04.72-3.6.72-1.04 2.16-1.52 4.32-1.52.24.08.48.08.72.08z" />
    </symbol>
    <symbol id="icon-instagram" viewBox="0 0 32 32">
      <path
        d="M28.718 10.756a9.264 9.264 0 0 0-.596-3.145 6.547 6.547 0 0 0-3.743-3.737 9.42 9.42 0 0 0-3.108-.596c-1.368-.061-1.801-.078-5.273-.078s-3.916 0-5.274.078a9.413 9.413 0 0 0-3.106.596 6.541 6.541 0 0 0-3.743 3.737 9.288 9.288 0 0 0-.596 3.101c-.061 1.367-.08 1.8-.08 5.265s0 3.909.08 5.265a9.335 9.335 0 0 0 .596 3.104 6.548 6.548 0 0 0 3.744 3.735 9.37 9.37 0 0 0 3.106.639c1.369.061 1.803.08 5.274.08s3.916 0 5.274-.08a9.362 9.362 0 0 0 3.108-.595 6.555 6.555 0 0 0 3.743-3.737 9.35 9.35 0 0 0 .596-3.104c.061-1.365.08-1.798.08-5.265-.003-3.466-.003-3.906-.082-5.264zM15.99 22.531c-3.631 0-6.572-2.936-6.572-6.561s2.941-6.561 6.572-6.561c3.628 0 6.572 2.936 6.572 6.561s-2.944 6.561-6.572 6.561zm6.834-11.835a1.53 1.53 0 1 1 0-3.06 1.53 1.53 0 1 1 0 3.06z" />
      <path d="M15.992 19.976a4.004 4.004 0 1 0 0-8.009 4.004 4.004 0 0 0 0 8.009z" />
    </symbol>
    <symbol id="icon-youtube" viewBox="0 0 32 32">
      <path
        d="M24.24 6c-1.36-.08-4.16-.16-8.4-.16h-.56c-4.08 0-6.8.08-8.16.24-1.84.16-3.12.64-3.84 1.28-.64.56-1.12 1.6-1.28 2.96-.08.88-.16 2.72-.16 5.52v.4c0 2.64.08 4.48.24 5.36.24 1.28.64 2.24 1.44 2.8.8.64 2.16 1.04 4.08 1.2 1.36.08 4.16.16 8.4.16h.56c4.08 0 6.8-.08 8.16-.24 1.84-.16 3.12-.64 3.84-1.28.64-.56 1.12-1.6 1.28-2.96.08-.88.16-2.72.16-5.52v-.4c0-2.64-.08-4.48-.24-5.36-.24-1.28-.64-2.24-1.44-2.8-.8-.64-2.16-1.04-4.08-1.2zm-3.12 9.84-8.8 5.28V10.56l8.8 5.28z" />
    </symbol>
    <symbol id="icon-arrow-top" viewBox="0 0 26 26" fill="none">
      <path fill="currentColor" fill-rule="evenodd"
        d="M.517 10.817 11.752.476a1.875 1.875 0 0 1 2.496 0l11.235 10.341c.69.635.69 1.664 0 2.299a1.875 1.875 0 0 1-2.497 0l-8.22-7.568v18.827c0 .898-.791 1.625-1.766 1.625s-1.765-.727-1.765-1.625V5.548l-8.221 7.568a1.875 1.875 0 0 1-2.497 0 1.535 1.535 0 0 1 0-2.299Z"
        clip-rule="evenodd" />
    </symbol>
    <symbol id="icon-arrow-start" fill="none">
      <path fill="#242424" fill-rule="evenodd"
        d="M7.04.54a.65.65 0 0 1 .92 0l6.5 6.5a.65.65 0 0 1 0 .92l-6.5 6.5a.65.65 0 0 1-.92-.92l5.39-5.39H1a.65.65 0 0 1 0-1.3h11.43L7.04 1.46a.65.65 0 0 1 0-.92Z"
        clip-rule="evenodd" />
    </symbol>
    <symbol id="icon-arrow-top" viewBox="0 0 26 26" fill="none">
      <path fill="currentColor" fill-rule="evenodd"
        d="M.517 10.817 11.752.476a1.875 1.875 0 0 1 2.496 0l11.235 10.341c.69.635.69 1.664 0 2.299a1.875 1.875 0 0 1-2.497 0l-8.22-7.568v18.827c0 .898-.791 1.625-1.766 1.625s-1.765-.727-1.765-1.625V5.548l-8.221 7.568a1.875 1.875 0 0 1-2.497 0 1.535 1.535 0 0 1 0-2.299Z"
        clip-rule="evenodd" />
    </symbol>
    <symbol id="icon-star-full" viewBox="0 0 34 32">
      <path fill="#eea10c" style="fill: var(--color3, #eea10c)"
        d="M14.89 2.282c0.737-2.268 3.945-2.268 4.682 0l2.080 6.402c0.33 1.014 1.275 1.701 2.341 1.701h6.731c2.384 0 3.376 3.051 1.447 4.453l-5.446 3.957c-0.863 0.627-1.224 1.738-0.894 2.752l2.080 6.402c0.737 2.268-1.859 4.154-3.788 2.752l-5.446-3.957c-0.863-0.627-2.031-0.627-2.894 0l-5.446 3.957c-1.929 1.402-4.525-0.484-3.788-2.752l2.080-6.402c0.33-1.014-0.031-2.125-0.894-2.752l-5.446-3.957c-1.929-1.402-0.938-4.453 1.447-4.453h6.731c1.066 0 2.012-0.687 2.341-1.701l2.080-6.402z">
      </path>
    </symbol>
      <symbol id="icon-star" viewBox="0 0 34 32">
        <path
          d="M15.349 4.972c0.592-1.823 3.172-1.823 3.764 0l1.672 5.147c0.265 0.815 1.025 1.368 1.882 1.368h5.411c1.917 0 2.714 2.453 1.163 3.58l-4.378 3.181c-0.694 0.504-0.984 1.397-0.719 2.212l1.672 5.147c0.593 1.823-1.494 3.339-3.045 2.212l-4.378-3.181c-0.694-0.504-1.633-0.504-2.326 0l-4.378 3.181c-1.551 1.127-3.638-0.389-3.045-2.212l1.672-5.147c0.265-0.815-0.025-1.709-0.719-2.212l-4.378-3.181c-1.551-1.127-0.754-3.58 1.163-3.58h5.411c0.857 0 1.617-0.552 1.882-1.368l1.672-5.147z">
        </path>
      </symbol>
      <symbol id="icon-star-empty" viewBox="0 0 34 32">
        <path fill="#33f4f4f4" style="fill: var(--rating-color, #33f4f4f4)"
          d="M14.89 2.282c0.737-2.268 3.945-2.268 4.682 0l2.080 6.402c0.33 1.014 1.275 1.701 2.341 1.701h6.731c2.384 0 3.376 3.051 1.447 4.453l-5.446 3.957c-0.863 0.627-1.224 1.738-0.894 2.752l2.080 6.402c0.737 2.268-1.859 4.154-3.788 2.752l-5.446-3.957c-0.863-0.627-2.031-0.627-2.894 0l-5.446 3.957c-1.929 1.402-4.525-0.484-3.788-2.752l2.080-6.402c0.33-1.014-0.031-2.125-0.894-2.752l-5.446-3.957c-1.929-1.402-0.938-4.453 1.447-4.453h6.731c1.066 0 2.012-0.687 2.341-1.701l2.080-6.402z">
        </path>
      </symbol>
      <symbol id="icon-quote" viewBox="0 0 36 32">
        <path fill="#f4f4f4" style="fill: var(--color2, #f4f4f4)"
          d="M7.813 17.132c2.182-0.865 3.932-0.638 5.25 0.679s1.709 3.418 1.174 6.3c-0.412 2.141-1.318 3.788-2.718 4.941-1.359 1.112-2.944 1.668-4.756 1.668-2.471 0-4.179-0.947-5.126-2.841-0.947-1.935-1.132-4.529-0.556-7.782 0.329-1.771 0.865-3.562 1.606-5.374s1.729-3.665 2.965-5.559c1.235-1.894 2.841-3.541 4.818-4.941s4.159-2.306 6.547-2.718l-0.618 6.547c-2.018 0.412-3.809 1.462-5.373 3.15-1.565 1.647-2.635 3.623-3.212 5.929zM26.404 17.132c2.182-0.865 3.932-0.638 5.25 0.679s1.709 3.418 1.173 6.3c-0.412 2.141-1.318 3.788-2.718 4.941-1.359 1.112-2.944 1.668-4.756 1.668-2.471 0-4.179-0.947-5.126-2.841-0.947-1.935-1.132-4.529-0.556-7.782 0.329-1.771 0.865-3.562 1.606-5.374s1.729-3.665 2.965-5.559 2.841-3.541 4.818-4.941c1.976-1.4 4.159-2.306 6.547-2.718l-0.618 6.547c-2.018 0.412-3.809 1.462-5.374 3.15-1.565 1.647-2.635 3.623-3.212 5.929z">
        </path>
      </symbol>
      <symbol id="icon-clear-search" width="18" height="18" fill="none">
        <path stroke="#242424" stroke-linecap="round" stroke-linejoin="round" stroke-width="1.5"
          d="m12.75 5.25-7.5 7.5m0-7.5 7.5 7.5" />
      </symbol>
      <symbol id="icon-search" width="18" height="18" fill="none">
        <path stroke="#242424" stroke-linecap="round" stroke-linejoin="round" stroke-width="1.5"
          d="M8.25 14.25a6 6 0 1 0 0-12 6 6 0 0 0 0 12ZM15.75 15.75l-3.263-3.262" />
      </symbol>
      <symbol id="icon-barbell" fill="none">
        <path fill="currentColor"
          d="M4.6 5.714H3.4c-.333 0-.6.287-.6.643v2.786h-.6c-.11 0-.2.096-.2.214v1.286c0 .118.09.214.2.214h.6v2.786c0 .356.268.643.6.643h1.2c.333 0 .6-.287.6-.643V6.357c0-.356-.268-.643-.6-.643Zm13.2 3.429h-.6V6.357c0-.356-.267-.643-.6-.643h-1.2c-.332 0-.6.287-.6.643v7.286c0 .356.268.643.6.643h1.2c.332 0 .6-.287.6-.643v-2.786h.6c.11 0 .2-.096.2-.214V9.357c0-.118-.09-.214-.2-.214ZM13.4 4h-1.2c-.332 0-.6.287-.6.643v4.5H8.4v-4.5C8.4 4.287 8.132 4 7.8 4H6.6c-.332 0-.6.287-.6.643v10.714c0 .356.268.643.6.643h1.2c.333 0 .6-.287.6-.643v-4.5h3.2v4.5c0 .356.268.643.6.643h1.2c.332 0 .6-.287.6-.643V4.643c0-.356-.268-.643-.6-.643Z" />
      </symbol>
      <symbol id="icon-run" viewBox="0 0 20 20" fill="none">
        <path fill="currentColor"
          d="M18.53 5.907a.741.741 0 0 0-1.043-.093l-2.05 1.723-.944-2.337a.726.726 0 0 0-.143-.227 2.007 2.007 0 0 0-.989-1.01c-.2-.091-.407-.14-.614-.164-.045-.024-.087-.055-.139-.071l-3.61-1.006a.743.743 0 0 0-.572.078.722.722 0 0 0-.45.42L6.617 6.715a.742.742 0 0 0 .423.958.742.742 0 0 0 .957-.423l1.148-2.952 1.644.457c-.04.065-.083.126-.116.195L8.566 9.52c-.03.067-.047.135-.069.204l-2.561 4.294-4.287 1.434a1.095 1.095 0 0 0 1.3 1.762l4.387-1.51c.135-.098.232-.226.306-.363.055-.059.118-.105.16-.178l1.527-2.56 2.71 2.31-2.9 3.268a1.093 1.093 0 1 0 1.64 1.45l3.619-4.077c.112-.126.18-.27.225-.422.027-.083.027-.168.033-.254 0-.043.017-.082.013-.122a1.072 1.072 0 0 0-.375-.796l-2.495-2.127c.18-.171.333-.375.443-.614l1.616-3.5.518 1.38a.698.698 0 0 0 .15.343.712.712 0 0 0 .283.198c.011.005.024.006.037.01a.722.722 0 0 0 .206.05.704.704 0 0 0 .253-.028h.003c.023-.006.046-.002.069-.012a.732.732 0 0 0 .291-.212l2.944-2.498c.313-.264.18-.73-.083-1.042ZM14.806 4.126a2.063 2.063 0 1 0 0-4.126 2.063 2.063 0 0 0 0 4.126Z" />
      </symbol>
      <symbol id="icon-sun" viewBox="0 0 40 40" fill="none">
        <path fill-rule="evenodd" clip-rule="evenodd"
          d="M16.9997 16.1754L17.433 16.6215L12.107 1.29404L18.2093 15.6512L18.453 16.2246L18.474 15.6018L19 0L19.526 15.6015L19.547 16.2246L19.7906 15.6515L25.893 1.29404L20.7716 16.0328L20.567 16.6215L21.0003 16.1754L31.8551 5.00141L21.7779 16.8869L21.3755 17.3616L36.081 10.6214L22.4091 18.0484L21.8631 18.345L22.4825 18.3086L38 17.395L21.964 19.439L37.353 24.4074L22.2672 20.6459L21.6646 20.4957L22.1469 20.8878L34.2273 30.7115L21.5132 21.7311L21.0054 21.3724L21.314 21.913L29.0451 35.456L20.4198 22.4694L20.0753 21.9507L22.5062 38L19 22.1526L15.4938 38L17.8313 22.5671L17.9247 21.9507L17.5804 22.4691L8.95494 35.456L16.6858 21.9133L16.9946 21.3724L16.4871 21.7309L3.77271 30.7115L15.8529 20.888L16.3354 20.4957L15.7332 20.6458L0.647022 24.4074L15.445 19.6298L16.036 19.439L0 17.395L16.1369 18.345L15.5912 18.0486L1.91903 10.6214L16.6245 17.3616L6.14495 5.00141L16.9997 16.1754ZM18.1089 16.853L17.3381 17.3323L16.7918 18.0589L16.5437 18.9346L16.6273 19.8411L17.0314 20.6561L17.7014 21.2695L18.5467 21.5984H19.4533L20.2986 21.2695L20.9686 20.6561L21.3727 19.8411L21.4563 18.9346L21.2082 18.0589L20.6619 17.3323L19.8911 16.853L19 16.6857L18.1089 16.853Z"
          fill="#242424" />
      </symbol>
      <symbol id="icon-trash" viewBox="0 0 32 32">
        <path stroke-linejoin="round" stroke-linecap="round" stroke-miterlimit="4" stroke-width="2.4"
          d="M21.333 8v-1.067c0-1.493 0-2.24-0.291-2.811-0.256-0.502-0.664-0.91-1.165-1.165-0.57-0.291-1.317-0.291-2.811-0.291h-2.133c-1.493 0-2.24 0-2.811 0.291-0.502 0.256-0.91 0.664-1.165 1.165-0.291 0.57-0.291 1.317-0.291 2.811v1.067M13.333 15.333v6.667M18.667 15.333v6.667M4 8h24M25.333 8v14.933c0 2.24 0 3.36-0.436 4.216-0.383 0.753-0.995 1.364-1.748 1.748-0.856 0.436-1.976 0.436-4.216 0.436h-5.867c-2.24 0-3.36 0-4.216-0.436-0.753-0.384-1.365-0.995-1.748-1.748-0.436-0.856-0.436-1.976-0.436-4.216v-14.933" />
      </symbol>
      <symbol id="menu-close" viewBox="0 0 32 32" fill="none">
        <path d="M24 8L8 24" stroke="#F4F4F4" stroke-width="2" stroke-linecap="round" stroke-linejoin="round" />
        <path d="M8 8L24 24" stroke="#F4F4F4" stroke-width="2" stroke-linecap="round" stroke-linejoin="round" />
      </symbol>
      <symbol id="icon-heart" viewBox="0 0 34 32">
        <path stroke-linejoin="round" stroke-linecap="round" stroke-miterlimit="4" stroke-width="2.5263"
          d="M29.25 4.787c-1.397-1.398-3.327-2.262-5.459-2.262s-4.062 0.865-5.459 2.262l-0 0-1.489 1.487-1.487-1.487c-1.397-1.397-3.327-2.261-5.459-2.261-4.264 0-7.721 3.457-7.721 7.721 0 2.132 0.864 4.062 2.261 5.459l12.406 12.408 12.408-12.408c1.397-1.397 2.261-3.327 2.261-5.459s-0.864-4.062-2.261-5.459v0z">
        </path>
      </symbol>
      <symbol id="icon-gym" viewBox="0 0 20 20" fill="none">
        <path
          d="M4.6 5.71429H3.4C3.0675 5.71429 2.8 6.00089 2.8 6.35714V9.14286H2.2C2.09 9.14286 2 9.23929 2 9.35714V10.6429C2 10.7607 2.09 10.8571 2.2 10.8571H2.8V13.6429C2.8 13.9991 3.0675 14.2857 3.4 14.2857H4.6C4.9325 14.2857 5.2 13.9991 5.2 13.6429V6.35714C5.2 6.00089 4.9325 5.71429 4.6 5.71429ZM17.8 9.14286H17.2V6.35714C17.2 6.00089 16.9325 5.71429 16.6 5.71429H15.4C15.0675 5.71429 14.8 6.00089 14.8 6.35714V13.6429C14.8 13.9991 15.0675 14.2857 15.4 14.2857H16.6C16.9325 14.2857 17.2 13.9991 17.2 13.6429V10.8571H17.8C17.91 10.8571 18 10.7607 18 10.6429V9.35714C18 9.23929 17.91 9.14286 17.8 9.14286ZM13.4 4H12.2C11.8675 4 11.6 4.28661 11.6 4.64286V9.14286H8.4V4.64286C8.4 4.28661 8.1325 4 7.8 4H6.6C6.2675 4 6 4.28661 6 4.64286V15.3571C6 15.7134 6.2675 16 6.6 16H7.8C8.1325 16 8.4 15.7134 8.4 15.3571V10.8571H11.6V15.3571C11.6 15.7134 11.8675 16 12.2 16H13.4C13.7325 16 14 15.7134 14 15.3571V4.64286C14 4.28661 13.7325 4 13.4 4Z"
          fill="currentColor" />
      </symbol>
      <symbol id="icon-dailynorm" viewBox="0 0 34 32">
        <path fill="#242424" style="fill: var(--color1, #242424)" d="M32 16c0 8.837-7.163 16-16 16s-16-7.163-16-16c0-8.837 7.163-16 16-16s16 7.163 16 16z" />
        <path fill="#f4f4f4" style="fill: var(--color2, #f4f4f4)"
          d="M10.6 11.714h-1.2c-0.332 0-0.6 0.287-0.6 0.643v2.786h-0.6c-0.11 0-0.2 0.096-0.2 0.214v1.286c0 0.118 0.090 0.214 0.2 0.214h0.6v2.786c0 0.356 0.268 0.643 0.6 0.643h1.2c0.332 0 0.6-0.287 0.6-0.643v-7.286c0-0.356-0.268-0.643-0.6-0.643zM23.8 15.143h-0.6v-2.786c0-0.356-0.267-0.643-0.6-0.643h-1.2c-0.332 0-0.6 0.287-0.6 0.643v7.286c0 0.356 0.267 0.643 0.6 0.643h1.2c0.332 0 0.6-0.287 0.6-0.643v-2.786h0.6c0.11 0 0.2-0.096 0.2-0.214v-1.286c0-0.118-0.090-0.214-0.2-0.214zM19.4 10h-1.2c-0.332 0-0.6 0.287-0.6 0.643v4.5h-3.2v-4.5c0-0.356-0.268-0.643-0.6-0.643h-1.2c-0.332 0-0.6 0.287-0.6 0.643v10.714c0 0.356 0.268 0.643 0.6 0.643h1.2c0.332 0 0.6-0.287 0.6-0.643v-4.5h3.2v4.5c0 0.356 0.267 0.643 0.6 0.643h1.2c0.332 0 0.6-0.287 0.6-0.643v-10.714c0-0.356-0.267-0.643-0.6-0.643z">
        </path>
      </symbol>
      <symbol id="icon-runner" viewBox="0 0 24 24">
      <circle cx="12" cy="12" r="12" fill="#242424"/>
        <path d="M18.8234 8.72544C18.6138 8.47504 18.2403 8.44212 17.9899 8.65092L16.349 10.0294L15.5943 8.15967C15.5675 8.08949 15.5267 8.03057 15.4799 7.97859C15.3257 7.63549 15.058 7.34091 14.6889 7.17023C14.5286 7.09745 14.3631 7.05846 14.1977 7.0394C14.1613 7.02034 14.1283 6.99521 14.0868 6.98222L11.199 6.17732C11.037 6.13314 10.8741 6.16173 10.7407 6.2397C10.5821 6.29342 10.4461 6.40865 10.3811 6.57587L9.29378 9.37178C9.17594 9.67589 9.3267 10.019 9.63168 10.1386C9.93492 10.2564 10.2789 10.1048 10.3976 9.79978L11.316 7.43882L12.6312 7.80444C12.5991 7.85643 12.5645 7.90495 12.5385 7.9604L10.8524 11.6149C10.8282 11.6686 10.8152 11.7232 10.7979 11.7787L8.7488 15.214L5.31955 16.3611C4.9314 16.6514 4.84909 17.1981 5.13587 17.5862C5.42439 17.9752 5.97282 18.0575 6.36011 17.7708L9.86907 16.5621C9.97651 16.4841 10.0545 16.3819 10.1134 16.2719C10.1576 16.2251 10.2078 16.1878 10.2416 16.1298L11.4633 14.0816L13.6319 15.9296L11.3116 18.5445C10.9919 18.9049 11.024 19.4603 11.3862 19.7791C11.7474 20.1005 12.3011 20.0667 12.6225 19.7046L15.5181 16.4426C15.6082 16.342 15.6619 16.2259 15.6983 16.1047C15.7199 16.0388 15.7199 15.9704 15.7251 15.9019C15.7251 15.8673 15.7381 15.8361 15.7355 15.804C15.7277 15.5649 15.6307 15.3327 15.4349 15.1672L13.4395 13.4656C13.5834 13.3287 13.7055 13.1658 13.7939 12.9743L15.0866 10.1749L15.5007 11.2779C15.5181 11.3758 15.551 11.472 15.6203 11.5525C15.6827 11.627 15.7624 11.6764 15.8473 11.7111C15.856 11.7154 15.8664 11.7163 15.8768 11.7189C15.9305 11.7379 15.9851 11.7561 16.0414 11.7587C16.1081 11.7648 16.1757 11.7561 16.2441 11.7371C16.2459 11.7362 16.2467 11.7362 16.2467 11.7362C16.2649 11.7319 16.2831 11.7353 16.3013 11.7275C16.3975 11.6912 16.4711 11.6296 16.5344 11.5577L18.8893 9.55892C19.1397 9.34838 19.034 8.97583 18.8234 8.72544Z" fill="#F4F4F4"/>
        <path d="M15.8446 7.30102C16.7562 7.30102 17.4951 6.56206 17.4951 5.65051C17.4951 4.73896 16.7562 4 15.8446 4C14.9331 4 14.1941 4.73896 14.1941 5.65051C14.1941 6.56206 14.9331 7.30102 15.8446 7.30102Z" fill="#F4F4F4"/>
      </symbol>
  </defs>
</svg>