<svg xmlns="http://www.w3.org/2000/svg" aria-hidden="true" style="position:absolute;width:0;height:0;overflow:hidden">
  <defs>
    <symbol id="icon-burger" viewBox="0 0 32 32">
      <path stroke="#242424" stroke-width="2" stroke-linecap="round" stroke-linejoin="round" d="M28 13.333H4M28 8H4M28 18.667H4M28 24H4"/>
    </symbol>
    <symbol id="icon-close" viewBox="0 0 32 32">
      <path stroke-linecap="round" stroke-linejoin="round" stroke="#F4F4F4" stroke-width="3" d="M24 8 8 24M8 8l16 16"/>
    </symbol>
    <symbol id="icon-burger" viewBox="0 0 46 32">
      <path stroke-linecap="round" stroke-width="3.429" d="M8.671 5.074H44M8.671 24.468H44M19.602 14.771H44" />
    </symbol>
    <symbol id="icon-close" viewBox="0 0 32 32">
      <path stroke-linecap="round" stroke-linejoin="round" stroke-width="3" d="M24 8 8 24M8 8l16 16" />
    </symbol>
    <symbol id="icon-facebook" viewBox="0 0 32 32">
      <path
        d="M19.52 4.64h.96v3.6h-1.2c-.48 0-.96 0-1.2.24s-.24.48-.24 1.04v1.28h2.64v3.04h-2.64v13.2h-4.08V13.76H11.6v-3.04h2.16V9.68c0-1.76.24-3.04.72-3.6.72-1.04 2.16-1.52 4.32-1.52.24.08.48.08.72.08z" />
    </symbol>
    <symbol id="icon-instagram" viewBox="0 0 32 32">
      <path
        d="M28.718 10.756a9.264 9.264 0 0 0-.596-3.145 6.547 6.547 0 0 0-3.743-3.737 9.42 9.42 0 0 0-3.108-.596c-1.368-.061-1.801-.078-5.273-.078s-3.916 0-5.274.078a9.413 9.413 0 0 0-3.106.596 6.541 6.541 0 0 0-3.743 3.737 9.288 9.288 0 0 0-.596 3.101c-.061 1.367-.08 1.8-.08 5.265s0 3.909.08 5.265a9.335 9.335 0 0 0 .596 3.104 6.548 6.548 0 0 0 3.744 3.735 9.37 9.37 0 0 0 3.106.639c1.369.061 1.803.08 5.274.08s3.916 0 5.274-.08a9.362 9.362 0 0 0 3.108-.595 6.555 6.555 0 0 0 3.743-3.737 9.35 9.35 0 0 0 .596-3.104c.061-1.365.08-1.798.08-5.265-.003-3.466-.003-3.906-.082-5.264zM15.99 22.531c-3.631 0-6.572-2.936-6.572-6.561s2.941-6.561 6.572-6.561c3.628 0 6.572 2.936 6.572 6.561s-2.944 6.561-6.572 6.561zm6.834-11.835a1.53 1.53 0 1 1 0-3.06 1.53 1.53 0 1 1 0 3.06z" />
      <path d="M15.992 19.976a4.004 4.004 0 1 0 0-8.009 4.004 4.004 0 0 0 0 8.009z" />
    </symbol>
    <symbol id="icon-youtube" viewBox="0 0 32 32">
      <path
        d="M24.24 6c-1.36-.08-4.16-.16-8.4-.16h-.56c-4.08 0-6.8.08-8.16.24-1.84.16-3.12.64-3.84 1.28-.64.56-1.12 1.6-1.28 2.96-.08.88-.16 2.72-.16 5.52v.4c0 2.64.08 4.48.24 5.36.24 1.28.64 2.24 1.44 2.8.8.64 2.16 1.04 4.08 1.2 1.36.08 4.16.16 8.4.16h.56c4.08 0 6.8-.08 8.16-.24 1.84-.16 3.12-.64 3.84-1.28.64-.56 1.12-1.6 1.28-2.96.08-.88.16-2.72.16-5.52v-.4c0-2.64-.08-4.48-.24-5.36-.24-1.28-.64-2.24-1.44-2.8-.8-.64-2.16-1.04-4.08-1.2zm-3.12 9.84-8.8 5.28V10.56l8.8 5.28z" />
    </symbol>
    <symbol id="icon-arrow-top" viewBox="0 0 26 26" fill="none">
      <path fill="currentColor" fill-rule="evenodd"
        d="M.517 10.817 11.752.476a1.875 1.875 0 0 1 2.496 0l11.235 10.341c.69.635.69 1.664 0 2.299a1.875 1.875 0 0 1-2.497 0l-8.22-7.568v18.827c0 .898-.791 1.625-1.766 1.625s-1.765-.727-1.765-1.625V5.548l-8.221 7.568a1.875 1.875 0 0 1-2.497 0 1.535 1.535 0 0 1 0-2.299Z"
        clip-rule="evenodd" />
    </symbol>
    <symbol id="icon-arrow-start" fill="none">
      <path fill="#242424" fill-rule="evenodd" d="M7.04.54a.65.65 0 0 1 .92 0l6.5 6.5a.65.65 0 0 1 0 .92l-6.5 6.5a.65.65 0 0 1-.92-.92l5.39-5.39H1a.65.65 0 0 1 0-1.3h11.43L7.04 1.46a.65.65 0 0 1 0-.92Z" clip-rule="evenodd"/>
    </symbol>
    <symbol id="icon-arrow-top" viewBox="0 0 26 26" fill="none">
      <path fill="currentColor" fill-rule="evenodd" d="M.517 10.817 11.752.476a1.875 1.875 0 0 1 2.496 0l11.235 10.341c.69.635.69 1.664 0 2.299a1.875 1.875 0 0 1-2.497 0l-8.22-7.568v18.827c0 .898-.791 1.625-1.766 1.625s-1.765-.727-1.765-1.625V5.548l-8.221 7.568a1.875 1.875 0 0 1-2.497 0 1.535 1.535 0 0 1 0-2.299Z" clip-rule="evenodd"/>
    </symbol>
    <symbol id="icon-star-full" viewBox="0 0 34 32">
      <path fill="#eea10c" style="fill: var(--color3, #eea10c)" d="M14.89 2.282c0.737-2.268 3.945-2.268 4.682 0l2.080 6.402c0.33 1.014 1.275 1.701 2.341 1.701h6.731c2.384 0 3.376 3.051 1.447 4.453l-5.446 3.957c-0.863 0.627-1.224 1.738-0.894 2.752l2.080 6.402c0.737 2.268-1.859 4.154-3.788 2.752l-5.446-3.957c-0.863-0.627-2.031-0.627-2.894 0l-5.446 3.957c-1.929 1.402-4.525-0.484-3.788-2.752l2.080-6.402c0.33-1.014-0.031-2.125-0.894-2.752l-5.446-3.957c-1.929-1.402-0.938-4.453 1.447-4.453h6.731c1.066 0 2.012-0.687 2.341-1.701l2.080-6.402z"></path>
      <symbol id="icon-star" viewBox="0 0 34 32">
        <path d="M14.89 2.282c0.737-2.268 3.945-2.268 4.682 0l2.080 6.402c0.33 1.014 1.275 1.701 2.341 1.701h6.731c2.384 0 3.376 3.051 1.447 4.453l-5.446 3.957c-0.863 0.627-1.224 1.738-0.894 2.752l2.080 6.402c0.737 2.268-1.859 4.154-3.788 2.752l-5.446-3.957c-0.863-0.627-2.031-0.627-2.894 0l-5.446 3.957c-1.929 1.402-4.525-0.484-3.788-2.752l2.080-6.402c0.33-1.014-0.031-2.125-0.894-2.752l-5.446-3.957c-1.929-1.402-0.938-4.453 1.447-4.453h6.731c1.066 0 2.012-0.687 2.341-1.701l2.080-6.402z">
      </path>
      </symbol>
      <symbol id="icon-star-empty" viewBox="0 0 34 32">
        <path fill="#33f4f4f4" style="fill: var(--rating-color, #33f4f4f4)" d="M14.89 2.282c0.737-2.268 3.945-2.268 4.682 0l2.080 6.402c0.33 1.014 1.275 1.701 2.341 1.701h6.731c2.384 0 3.376 3.051 1.447 4.453l-5.446 3.957c-0.863 0.627-1.224 1.738-0.894 2.752l2.080 6.402c0.737 2.268-1.859 4.154-3.788 2.752l-5.446-3.957c-0.863-0.627-2.031-0.627-2.894 0l-5.446 3.957c-1.929 1.402-4.525-0.484-3.788-2.752l2.080-6.402c0.33-1.014-0.031-2.125-0.894-2.752l-5.446-3.957c-1.929-1.402-0.938-4.453 1.447-4.453h6.731c1.066 0 2.012-0.687 2.341-1.701l2.080-6.402z"></path>
      </symbol>
      <symbol id="icon-quote" viewBox="0 0 36 32">
        <path fill="#f4f4f4" style="fill: var(--color2, #f4f4f4)"
        d="M7.813 17.132c2.182-0.865 3.932-0.638 5.25 0.679s1.709 3.418 1.174 6.3c-0.412 2.141-1.318 3.788-2.718 4.941-1.359 1.112-2.944 1.668-4.756 1.668-2.471 0-4.179-0.947-5.126-2.841-0.947-1.935-1.132-4.529-0.556-7.782 0.329-1.771 0.865-3.562 1.606-5.374s1.729-3.665 2.965-5.559c1.235-1.894 2.841-3.541 4.818-4.941s4.159-2.306 6.547-2.718l-0.618 6.547c-2.018 0.412-3.809 1.462-5.373 3.15-1.565 1.647-2.635 3.623-3.212 5.929zM26.404 17.132c2.182-0.865 3.932-0.638 5.25 0.679s1.709 3.418 1.173 6.3c-0.412 2.141-1.318 3.788-2.718 4.941-1.359 1.112-2.944 1.668-4.756 1.668-2.471 0-4.179-0.947-5.126-2.841-0.947-1.935-1.132-4.529-0.556-7.782 0.329-1.771 0.865-3.562 1.606-5.374s1.729-3.665 2.965-5.559 2.841-3.541 4.818-4.941c1.976-1.4 4.159-2.306 6.547-2.718l-0.618 6.547c-2.018 0.412-3.809 1.462-5.374 3.15-1.565 1.647-2.635 3.623-3.212 5.929z">
      </path>
      </symbol>
      <symbol id="icon-clear-search"  width="18" height="18" fill="none">
        <path stroke="#242424" stroke-linecap="round" stroke-linejoin="round" stroke-width="1.5" d="m12.75 5.25-7.5 7.5m0-7.5 7.5 7.5"/>
      </symbol>
      <symbol id="icon-search" width="18" height="18" fill="none">
        <path stroke="#242424" stroke-linecap="round" stroke-linejoin="round" stroke-width="1.5" d="M8.25 14.25a6 6 0 1 0 0-12 6 6 0 0 0 0 12ZM15.75 15.75l-3.263-3.262"/>
      </symbol>
      <symbol id="icon-barbell" fill="none">
        <path fill="currentColor" d="M4.6 5.714H3.4c-.333 0-.6.287-.6.643v2.786h-.6c-.11 0-.2.096-.2.214v1.286c0 .118.09.214.2.214h.6v2.786c0 .356.268.643.6.643h1.2c.333 0 .6-.287.6-.643V6.357c0-.356-.268-.643-.6-.643Zm13.2 3.429h-.6V6.357c0-.356-.267-.643-.6-.643h-1.2c-.332 0-.6.287-.6.643v7.286c0 .356.268.643.6.643h1.2c.332 0 .6-.287.6-.643v-2.786h.6c.11 0 .2-.096.2-.214V9.357c0-.118-.09-.214-.2-.214ZM13.4 4h-1.2c-.332 0-.6.287-.6.643v4.5H8.4v-4.5C8.4 4.287 8.132 4 7.8 4H6.6c-.332 0-.6.287-.6.643v10.714c0 .356.268.643.6.643h1.2c.333 0 .6-.287.6-.643v-4.5h3.2v4.5c0 .356.268.643.6.643h1.2c.332 0 .6-.287.6-.643V4.643c0-.356-.268-.643-.6-.643Z"/>
      </symbol>
      <symbol id="icon-run" viewBox="0 0 20 20" fill="none">
        <path fill="currentColor" d="M18.53 5.907a.741.741 0 0 0-1.043-.093l-2.05 1.723-.944-2.337a.726.726 0 0 0-.143-.227 2.007 2.007 0 0 0-.989-1.01c-.2-.091-.407-.14-.614-.164-.045-.024-.087-.055-.139-.071l-3.61-1.006a.743.743 0 0 0-.572.078.722.722 0 0 0-.45.42L6.617 6.715a.742.742 0 0 0 .423.958.742.742 0 0 0 .957-.423l1.148-2.952 1.644.457c-.04.065-.083.126-.116.195L8.566 9.52c-.03.067-.047.135-.069.204l-2.561 4.294-4.287 1.434a1.095 1.095 0 0 0 1.3 1.762l4.387-1.51c.135-.098.232-.226.306-.363.055-.059.118-.105.16-.178l1.527-2.56 2.71 2.31-2.9 3.268a1.093 1.093 0 1 0 1.64 1.45l3.619-4.077c.112-.126.18-.27.225-.422.027-.083.027-.168.033-.254 0-.043.017-.082.013-.122a1.072 1.072 0 0 0-.375-.796l-2.495-2.127c.18-.171.333-.375.443-.614l1.616-3.5.518 1.38a.698.698 0 0 0 .15.343.712.712 0 0 0 .283.198c.011.005.024.006.037.01a.722.722 0 0 0 .206.05.704.704 0 0 0 .253-.028h.003c.023-.006.046-.002.069-.012a.732.732 0 0 0 .291-.212l2.944-2.498c.313-.264.18-.73-.083-1.042ZM14.806 4.126a2.063 2.063 0 1 0 0-4.126 2.063 2.063 0 0 0 0 4.126Z"/>
      </symbol>
      <symbol id="icon-sun" viewBox="0 0 40 40" fill="none">
        <path fill-rule="evenodd" clip-rule="evenodd" d="M16.9997 16.1754L17.433 16.6215L12.107 1.29404L18.2093 15.6512L18.453 16.2246L18.474 15.6018L19 0L19.526 15.6015L19.547 16.2246L19.7906 15.6515L25.893 1.29404L20.7716 16.0328L20.567 16.6215L21.0003 16.1754L31.8551 5.00141L21.7779 16.8869L21.3755 17.3616L36.081 10.6214L22.4091 18.0484L21.8631 18.345L22.4825 18.3086L38 17.395L21.964 19.439L37.353 24.4074L22.2672 20.6459L21.6646 20.4957L22.1469 20.8878L34.2273 30.7115L21.5132 21.7311L21.0054 21.3724L21.314 21.913L29.0451 35.456L20.4198 22.4694L20.0753 21.9507L22.5062 38L19 22.1526L15.4938 38L17.8313 22.5671L17.9247 21.9507L17.5804 22.4691L8.95494 35.456L16.6858 21.9133L16.9946 21.3724L16.4871 21.7309L3.77271 30.7115L15.8529 20.888L16.3354 20.4957L15.7332 20.6458L0.647022 24.4074L15.445 19.6298L16.036 19.439L0 17.395L16.1369 18.345L15.5912 18.0486L1.91903 10.6214L16.6245 17.3616L6.14495 5.00141L16.9997 16.1754ZM18.1089 16.853L17.3381 17.3323L16.7918 18.0589L16.5437 18.9346L16.6273 19.8411L17.0314 20.6561L17.7014 21.2695L18.5467 21.5984H19.4533L20.2986 21.2695L20.9686 20.6561L21.3727 19.8411L21.4563 18.9346L21.2082 18.0589L20.6619 17.3323L19.8911 16.853L19 16.6857L18.1089 16.853Z" fill="#242424"/>
      </symbol>
      <symbol id="icon-trash" viewBox="0 0 32 32">
        <path d="M14.934 1.367c-1.493 0-2.423-0.065-3.402 0.434-0.746 0.38-1.35 0.984-1.73 1.73-0.465 0.912-0.408 1.847-0.402 3.168h-5.398c-0 0-0.001 0-0.001 0-0.718 0-1.3 0.582-1.3 1.3 0 0 0 0.001 0 0.001v-0c0 0 0 0 0 0.001 0 0.718 0.582 1.3 1.3 1.3 0 0 0.001 0 0.001 0h1.367v13.633c0 2.24-0.066 3.54 0.578 4.805 0.508 0.997 1.319 1.808 2.316 2.316 1.265 0.644 2.564 0.578 4.805 0.578h5.867c2.24 0 3.54 0.066 4.805-0.578 0.997-0.508 1.808-1.32 2.316-2.316 0.644-1.265 0.578-2.564 0.578-4.805v-13.633h1.367c0 0 0 0 0.001 0 0.718 0 1.3-0.582 1.3-1.3 0-0 0-0.001 0-0.001v0c0-0 0-0 0-0.001 0-0.718-0.582-1.3-1.3-1.3-0 0-0.001 0-0.001 0h-5.398c0.006-1.321 0.063-2.256-0.402-3.168-0.38-0.746-0.984-1.35-1.73-1.73-0.979-0.499-1.909-0.434-3.402-0.434zM14.934 3.965h2.133c1.493 0 2.057 0.070 2.219 0.152 0.257 0.131 0.467 0.337 0.598 0.594 0 0.001 0 0.001 0 0.002s0 0.001 0 0.002v-0c0.074 0.144 0.125 0.819 0.137 1.984h-8.039c0.012-1.166 0.063-1.84 0.137-1.984 0.131-0.257 0.336-0.467 0.594-0.598 0.001 0 0.001 0 0.002 0s0.001 0 0.002 0h-0c0.162-0.082 0.725-0.152 2.219-0.152zM7.965 9.301h16.070v13.633c0 2.24-0.069 3.178-0.297 3.625-0.259 0.508-0.672 0.921-1.18 1.18-0.447 0.228-1.385 0.297-3.625 0.297h-5.867c-2.24 0-3.178-0.069-3.625-0.297-0.508-0.259-0.921-0.672-1.18-1.18-0.228-0.447-0.297-1.385-0.297-3.625zM13.332 14.035c-0.716 0.002-1.295 0.581-1.297 1.297v6.668c0 0 0 0 0 0.001 0 0.717 0.58 1.298 1.297 1.3h0c0 0 0.001 0 0.001 0 0.718 0 1.3-0.582 1.3-1.3 0-0 0-0.001 0-0.001v0-6.668c-0.002-0.717-0.583-1.297-1.3-1.297-0 0-0.001 0-0.001 0h0zM18.668 14.035c-0 0-0 0-0.001 0-0.717 0-1.298 0.58-1.3 1.297v6.668c0 0 0 0 0 0.001 0 0.718 0.582 1.3 1.3 1.3 0 0 0.001 0 0.001 0h-0c0.717-0.002 1.297-0.583 1.297-1.3 0-0 0-0.001 0-0.001v0-6.668c-0.002-0.716-0.581-1.295-1.297-1.297h-0z"></path>
      </symbol>
      <symbol id="menu-close" viewBox="0 0 32 32" fill="none">
        <path d="M24 8L8 24" stroke="#F4F4F4" stroke-width="2" stroke-linecap="round" stroke-linejoin="round"/>
        <path d="M8 8L24 24" stroke="#F4F4F4" stroke-width="2" stroke-linecap="round" stroke-linejoin="round"/>
      </symbol>
      <symbol id="icon-heart" viewBox="0 0 34 32">
        <path stroke-linejoin="round" stroke-linecap="round" stroke-miterlimit="4" stroke-width="2.5263" d="M29.25 4.787c-1.397-1.398-3.327-2.262-5.459-2.262s-4.062 0.865-5.459 2.262l-0 0-1.489 1.487-1.487-1.487c-1.397-1.397-3.327-2.261-5.459-2.261-4.264 0-7.721 3.457-7.721 7.721 0 2.132 0.864 4.062 2.261 5.459l12.406 12.408 12.408-12.408c1.397-1.397 2.261-3.327 2.261-5.459s-0.864-4.062-2.261-5.459v0z"></path>
      </symbol>
      <symbol id="icon-dailynorm" viewBox="0 0 34 32">
        <path fill="#242424" style="fill: var(--color1, #242424)" d="M32 16c0 8.837-7.163 16-16 16s-16-7.163-16-16c0-8.837 7.163-16 16-16s16 7.163 16 16z"></path>
        <path fill="#f4f4f4" style="fill: var(--color2, #f4f4f4)" d="M10.6 11.714h-1.2c-0.332 0-0.6 0.287-0.6 0.643v2.786h-0.6c-0.11 0-0.2 0.096-0.2 0.214v1.286c0 0.118 0.090 0.214 0.2 0.214h0.6v2.786c0 0.356 0.268 0.643 0.6 0.643h1.2c0.332 0 0.6-0.287 0.6-0.643v-7.286c0-0.356-0.268-0.643-0.6-0.643zM23.8 15.143h-0.6v-2.786c0-0.356-0.267-0.643-0.6-0.643h-1.2c-0.332 0-0.6 0.287-0.6 0.643v7.286c0 0.356 0.267 0.643 0.6 0.643h1.2c0.332 0 0.6-0.287 0.6-0.643v-2.786h0.6c0.11 0 0.2-0.096 0.2-0.214v-1.286c0-0.118-0.090-0.214-0.2-0.214zM19.4 10h-1.2c-0.332 0-0.6 0.287-0.6 0.643v4.5h-3.2v-4.5c0-0.356-0.268-0.643-0.6-0.643h-1.2c-0.332 0-0.6 0.287-0.6 0.643v10.714c0 0.356 0.268 0.643 0.6 0.643h1.2c0.332 0 0.6-0.287 0.6-0.643v-4.5h3.2v4.5c0 0.356 0.267 0.643 0.6 0.643h1.2c0.332 0 0.6-0.287 0.6-0.643v-10.714c0-0.356-0.267-0.643-0.6-0.643z"></path>
      </symbol>
    </defs>
  </svg>