<svg width="136" height="24" viewBox="0 0 136 24" fill="none" xmlns="http://www.w3.org/2000/svg">
<mask id="path-1-outside-1_82_1458" maskUnits="userSpaceOnUse" x="0" y="4" width="136" height="16" fill="black">
<rect fill="white" y="4" width="136" height="16"/>
<symbol id="main-logo" viewBox="0 0 136 24">
<path d="M6.98 13.28L2 5H4.98L8.32 10.74H8.36L11.7 5H14.68L9.7 13.28V19H6.98V13.28Z"/>
<path d="M14.6703 16.7V7.3L16.9703 5H24.1703L26.4703 7.3V16.7L24.1703 19H16.9703L14.6703 16.7ZM22.7303 16.68L23.7503 15.66V8.34L22.7303 7.32H18.4103L17.3903 8.34V15.66L18.4103 16.68H22.7303Z"/>
<path d="M28.3742 16.6V5H31.0942V15.66L32.1142 16.68H36.0342L37.0542 15.66V5H39.7742V16.6L37.3742 19H30.7742L28.3742 16.6Z"/>
<path d="M52.8781 14.36V19H50.1581V14.98L48.9581 13.64H44.5981V19H41.8781V5H50.6581L52.7981 7.16V11.4L51.4381 12.78L52.8781 14.36ZM44.5981 11.4H49.4181L50.1181 10.7V7.98L49.4181 7.28H44.5981V11.4Z"/>
<path d="M59.8234 5H69.9434V7.3H62.5434V10.84H69.3634V13.1H62.5434V16.7H69.9434V19H59.8234V5Z"/>
<path d="M71.4523 5H73.8923L80.1323 14.5H80.1723V5H82.7923V19H80.3523L74.1123 9.52H74.0723V19H71.4523V5Z"/>
<path d="M84.8977 5H95.0177V7.3H87.6177V10.84H94.4377V13.1H87.6177V16.7H95.0177V19H84.8977V5Z"/>
<path d="M107.527 14.36V19H104.807V14.98L103.607 13.64H99.2466V19H96.5266V5H105.307L107.447 7.16V11.4L106.087 12.78L107.527 14.36ZM99.2466 11.4H104.067L104.767 10.7V7.98L104.067 7.28H99.2466V11.4Z"/>
<path d="M109.323 16.7V7.3L111.623 5H118.583L120.843 7.26V9.4H118.123V8.26L117.183 7.32H113.063L112.043 8.34V15.66L113.063 16.68H117.223L118.203 15.7V13.52H115.203V11.2H120.843V16.7L118.543 19H111.623L109.323 16.7Z"/>
<path d="M125.828 13.28L120.848 5H123.828L127.168 10.74H127.208L130.548 5H133.528L128.548 13.28V19H125.828V13.28Z"/>
</mask>
<path d="M6.98 13.28L2 5H4.98L8.32 10.74H8.36L11.7 5H14.68L9.7 13.28V19H6.98V13.28Z" fill="#242424"/>
<path d="M14.6703 16.7V7.3L16.9703 5H24.1703L26.4703 7.3V16.7L24.1703 19H16.9703L14.6703 16.7ZM22.7303 16.68L23.7503 15.66V8.34L22.7303 7.32H18.4103L17.3903 8.34V15.66L18.4103 16.68H22.7303Z" fill="#242424"/>
<path d="M28.3742 16.6V5H31.0942V15.66L32.1142 16.68H36.0342L37.0542 15.66V5H39.7742V16.6L37.3742 19H30.7742L28.3742 16.6Z" fill="#242424"/>
<path d="M52.8781 14.36V19H50.1581V14.98L48.9581 13.64H44.5981V19H41.8781V5H50.6581L52.7981 7.16V11.4L51.4381 12.78L52.8781 14.36ZM44.5981 11.4H49.4181L50.1181 10.7V7.98L49.4181 7.28H44.5981V11.4Z" fill="#242424"/>
<path d="M59.8234 5H69.9434V7.3H62.5434V10.84H69.3634V13.1H62.5434V16.7H69.9434V19H59.8234V5Z" fill="#242424"/>
<path d="M71.4523 5H73.8923L80.1323 14.5H80.1723V5H82.7923V19H80.3523L74.1123 9.52H74.0723V19H71.4523V5Z" fill="#242424"/>
<path d="M84.8977 5H95.0177V7.3H87.6177V10.84H94.4377V13.1H87.6177V16.7H95.0177V19H84.8977V5Z" fill="#242424"/>
<path d="M107.527 14.36V19H104.807V14.98L103.607 13.64H99.2466V19H96.5266V5H105.307L107.447 7.16V11.4L106.087 12.78L107.527 14.36ZM99.2466 11.4H104.067L104.767 10.7V7.98L104.067 7.28H99.2466V11.4Z" fill="#242424"/>
<path d="M109.323 16.7V7.3L111.623 5H118.583L120.843 7.26V9.4H118.123V8.26L117.183 7.32H113.063L112.043 8.34V15.66L113.063 16.68H117.223L118.203 15.7V13.52H115.203V11.2H120.843V16.7L118.543 19H111.623L109.323 16.7Z" fill="#242424"/>
<path d="M125.828 13.28L120.848 5H123.828L127.168 10.74H127.208L130.548 5H133.528L128.548 13.28V19H125.828V13.28Z" fill="#242424"/>
<path d="M6.98 13.28L2 5H4.98L8.32 10.74H8.36L11.7 5H14.68L9.7 13.28V19H6.98V13.28Z" stroke="black" stroke-width="2" mask="url(#path-1-outside-1_82_1458)"/>
<path d="M14.6703 16.7V7.3L16.9703 5H24.1703L26.4703 7.3V16.7L24.1703 19H16.9703L14.6703 16.7ZM22.7303 16.68L23.7503 15.66V8.34L22.7303 7.32H18.4103L17.3903 8.34V15.66L18.4103 16.68H22.7303Z" stroke="black" stroke-width="2" mask="url(#path-1-outside-1_82_1458)"/>
<path d="M28.3742 16.6V5H31.0942V15.66L32.1142 16.68H36.0342L37.0542 15.66V5H39.7742V16.6L37.3742 19H30.7742L28.3742 16.6Z" stroke="black" stroke-width="2" mask="url(#path-1-outside-1_82_1458)"/>
<path d="M52.8781 14.36V19H50.1581V14.98L48.9581 13.64H44.5981V19H41.8781V5H50.6581L52.7981 7.16V11.4L51.4381 12.78L52.8781 14.36ZM44.5981 11.4H49.4181L50.1181 10.7V7.98L49.4181 7.28H44.5981V11.4Z" stroke="black" stroke-width="2" mask="url(#path-1-outside-1_82_1458)"/>
<path d="M59.8234 5H69.9434V7.3H62.5434V10.84H69.3634V13.1H62.5434V16.7H69.9434V19H59.8234V5Z" stroke="black" stroke-width="2" mask="url(#path-1-outside-1_82_1458)"/>
<path d="M71.4523 5H73.8923L80.1323 14.5H80.1723V5H82.7923V19H80.3523L74.1123 9.52H74.0723V19H71.4523V5Z" stroke="black" stroke-width="2" mask="url(#path-1-outside-1_82_1458)"/>
<path d="M84.8977 5H95.0177V7.3H87.6177V10.84H94.4377V13.1H87.6177V16.7H95.0177V19H84.8977V5Z" stroke="black" stroke-width="2" mask="url(#path-1-outside-1_82_1458)"/>
<path d="M107.527 14.36V19H104.807V14.98L103.607 13.64H99.2466V19H96.5266V5H105.307L107.447 7.16V11.4L106.087 12.78L107.527 14.36ZM99.2466 11.4H104.067L104.767 10.7V7.98L104.067 7.28H99.2466V11.4Z" stroke="black" stroke-width="2" mask="url(#path-1-outside-1_82_1458)"/>
<path d="M109.323 16.7V7.3L111.623 5H118.583L120.843 7.26V9.4H118.123V8.26L117.183 7.32H113.063L112.043 8.34V15.66L113.063 16.68H117.223L118.203 15.7V13.52H115.203V11.2H120.843V16.7L118.543 19H111.623L109.323 16.7Z" stroke="black" stroke-width="2" mask="url(#path-1-outside-1_82_1458)"/>
<path d="M125.828 13.28L120.848 5H123.828L127.168 10.74H127.208L130.548 5H133.528L128.548 13.28V19H125.828V13.28Z" stroke="black" stroke-width="2" mask="url(#path-1-outside-1_82_1458)"/>
</symbol>
</svg>
